# xmcd
#
# Track frame offsets: 
#        150
#        23932
#        40388
#        57506
#        79612
#        98592
#        110926
#        125841
#        146822
#        159394
#        177094
#        188887
#        205575
#        223125
#        234956
#
# Disc length: 3636 seconds
#
# Revision: 0
# Processed by: cddbd v1.5.2PL0 Copyright (c) Steve Scherf et al.
# Submitted via: ExactAudioCopy v0.99pb4
#
DISCID=d70e320f
DTITLE=Micky Modelle - Country Club Anthems
DYEAR=2008
DGENRE=Country
TTITLE0=Country Roads
TTITLE1=Crystal Chandeliers
TTITLE2=Is This the Way to Amarillo
TTITLE3=If Tomorrow Never Comes
TTITLE4=Leaving on a Jet Plane
TTITLE5=When You're in Love with a Beautiful Woman
TTITLE6=Rose Garden
TTITLE7=She Believes in Me
TTITLE8=Stand by Your Man
TTITLE9=The Gambler
TTITLE10=I Walk the Line
TTITLE11=Queen of the Silver Dollar
TTITLE12=Young Hearts Run Free
TTITLE13=Your Cheatin' Heart
TTITLE14=Country Megamix 2
EXTD=
EXTT0=
EXTT1=
EXTT2=
EXTT3=
EXTT4=
EXTT5=
EXTT6=
EXTT7=
EXTT8=
EXTT9=
EXTT10=
EXTT11=
EXTT12=
EXTT13=
EXTT14=
PLAYORDER=
